# xmcd CD database file
#
# Track frame offsets:
#	150
#	14354
#	16957
#	49767
#	68092
#	84684
#	90469
#	108610
#	116755
#	134767
#	148389
#	167067
#	191773
#	203800
#	225913
#	243867
#	258882
#	281661
#	294070
#
# Disc length: 4059 seconds
#
# Revision: 1
# Processed by: cddbd v1.5.2PL0 Copyright (c) Steve Scherf et al.
# Submitted via: CDex 1.51
#
DISCID=0f0fd913
DTITLE=Hadara Levin-Areddy - Live at Tmuna Theatre - 14/01/01
DYEAR=2001
DGENRE=Blues
TTITLE0=My oh My
TTITLE1=Mad Man
TTITLE2=Nasty
TTITLE3=Close your Eyes
TTITLE4=Night
TTITLE5=Bluez Me
TTITLE6=Stardom and Dust
TTITLE7=Wake Up
TTITLE8=You and I
TTITLE9=Happy
TTITLE10=בואי אראה לך
TTITLE11=NYU
TTITLE12=You Took a Cab
TTITLE13=Loveless Fridays
TTITLE14=War Song
TTITLE15=See it Coming
TTITLE16=את לא משהו
TTITLE17=Thank You
TTITLE18=Here Comes My Baby
EXTD=YEAR: 2001
EXTT0=
EXTT1=
EXTT2=
EXTT3=
EXTT4=
EXTT5=
EXTT6=
EXTT7=
EXTT8=
EXTT9=
EXTT10=
EXTT11=
EXTT12=
EXTT13=
EXTT14=
EXTT15=
EXTT16=
EXTT17=
EXTT18=
PLAYORDER=
